# xmcd CD database file
#
# Track frame offsets:
#        150
#        16732
#        33092
#        48677
#        65285
#        81532
#        102522
#        118247
#        139157
#        154207
#        177997
#
# Disc length: 2429 seconds
#
# Revision: 0
# Processed by: cddbd v1.5.2PL0 Copyright (c) Steve Scherf et al.
# Submitted via: CUERipper 2.1.5
#
DISCID=96097b0b
DTITLE=John Mohead - For Promotional Purposes
DYEAR=1999
DGENRE=
TTITLE0=Seen It All
TTITLE1=Truck Stop Gurl
TTITLE2=I Found It
TTITLE3=Down To The Levee
TTITLE4=Love Is
TTITLE5=Melody
TTITLE6=I Don't Know
TTITLE7=She Won't Be Home
TTITLE8=Don't Talk About It
TTITLE9=And It Rained
TTITLE10=Overture At Three
EXTD=
EXTT0=
EXTT1=
EXTT2=
EXTT3=
EXTT4=
EXTT5=
EXTT6=
EXTT7=
EXTT8=
EXTT9=
EXTT10=
PLAYORDER=
